<?xml version="1.0" standalone="no"?>
<!DOCTYPE svg PUBLIC "-//W3C//DTD SVG 20010904//EN"
 "http://www.w3.org/TR/2001/REC-SVG-20010904/DTD/svg10.dtd">
<svg version="1.0" xmlns="http://www.w3.org/2000/svg"
 width="512.000000pt" height="512.000000pt" viewBox="0 0 512.000000 512.000000"
 preserveAspectRatio="xMidYMid meet">
<metadata>
Created by potrace 1.14, written by Peter Selinger 2001-2017
</metadata>
<g transform="translate(0.000000,512.000000) scale(0.100000,-0.100000)"
fill="#000000" stroke="none">
<path d="M500 2555 l0 -1465 780 0 780 0 0 245 0 245 -515 0 -515 0 0 1220 0
1220 -265 0 -265 0 0 -1465z"/>
<path d="M1996 3893 c25 -71 260 -729 522 -1463 l477 -1335 291 -3 c236 -2
293 0 297 11 17 46 1031 2885 1035 2900 4 16 -12 17 -264 15 l-268 -3 -396
-1122 c-217 -617 -397 -1124 -400 -1127 -3 -3 -178 486 -389 1087 -211 601
-391 1109 -399 1130 l-14 37 -269 0 -268 0 45 -127z"/>
</g>
</svg>
